<svg xmlns="http://www.w3.org/2000/svg" xmlns:xlink="http://www.w3.org/1999/xlink" width="500" zoomAndPan="magnify" viewBox="0 0 375 374.999991" height="500" preserveAspectRatio="xMidYMid meet" version="1.0"><defs><g/><clipPath id="25fbe0ab7c"><path d="M 12.675781 12.675781 L 362.175781 12.675781 L 362.175781 362.175781 L 12.675781 362.175781 Z M 12.675781 12.675781 " clip-rule="nonzero"/></clipPath><clipPath id="bad05703ba"><path d="M 97.910156 113.207031 L 277.160156 113.207031 L 277.160156 266.957031 L 97.910156 266.957031 Z M 97.910156 113.207031 " clip-rule="nonzero"/></clipPath><clipPath id="bc4124be09"><path d="M 39 227.257812 L 64 227.257812 L 64 251.359375 L 39 251.359375 Z M 39 227.257812 " clip-rule="nonzero"/></clipPath><clipPath id="306d8d9a96"><path d="M 51.871094 227.667969 L 55.390625 234.808594 C 55.441406 234.933594 55.566406 235.023438 55.710938 235.042969 L 63.585938 236.183594 C 63.921875 236.238281 64.066406 236.667969 63.816406 236.898438 L 58.121094 242.453125 C 58.015625 242.542969 57.976562 242.683594 57.996094 242.828125 L 59.335938 250.683594 C 59.390625 251.023438 59.03125 251.289062 58.726562 251.128906 L 51.675781 247.414062 C 51.550781 247.34375 51.40625 247.34375 51.28125 247.414062 L 44.230469 251.128906 C 43.925781 251.289062 43.570312 251.023438 43.625 250.683594 L 44.964844 242.828125 C 44.980469 242.683594 44.945312 242.558594 44.839844 242.453125 L 39.160156 236.898438 C 38.910156 236.648438 39.054688 236.238281 39.390625 236.183594 L 47.265625 235.042969 C 47.410156 235.023438 47.515625 234.933594 47.585938 234.808594 L 51.105469 227.667969 C 51.265625 227.367188 51.710938 227.367188 51.871094 227.667969 Z M 51.871094 227.667969 " clip-rule="nonzero"/></clipPath><clipPath id="1bac60b98d"><path d="M 311.3125 227.257812 L 336.664062 227.257812 L 336.664062 251.359375 L 311.3125 251.359375 Z M 311.3125 227.257812 " clip-rule="nonzero"/></clipPath><clipPath id="046a43c1ad"><path d="M 324.328125 227.667969 L 327.84375 234.808594 C 327.898438 234.933594 328.023438 235.023438 328.164062 235.042969 L 336.039062 236.183594 C 336.378906 236.238281 336.519531 236.667969 336.269531 236.898438 L 330.574219 242.453125 C 330.46875 242.542969 330.433594 242.683594 330.449219 242.828125 L 331.789062 250.683594 C 331.84375 251.023438 331.484375 251.289062 331.183594 251.128906 L 324.128906 247.414062 C 324.003906 247.34375 323.863281 247.34375 323.738281 247.414062 L 316.683594 251.128906 C 316.382812 251.289062 316.023438 251.023438 316.078125 250.683594 L 317.417969 242.828125 C 317.433594 242.683594 317.398438 242.558594 317.292969 242.453125 L 311.613281 236.898438 C 311.363281 236.648438 311.507812 236.238281 311.847656 236.183594 L 319.71875 235.042969 C 319.863281 235.023438 319.96875 234.933594 320.042969 234.808594 L 323.558594 227.667969 C 323.71875 227.367188 324.167969 227.367188 324.328125 227.667969 Z M 324.328125 227.667969 " clip-rule="nonzero"/></clipPath></defs><path fill="#000000" d="M 187.5 375 C 84.144531 375 0 290.855469 0 187.5 C 0 84.144531 84.144531 0 187.5 0 C 290.855469 0 375 84.144531 375 187.5 C 375 290.855469 290.855469 375 187.5 375 Z M 187.5 2.769531 C 85.621094 2.769531 2.769531 85.621094 2.769531 187.5 C 2.769531 289.378906 85.621094 372.230469 187.5 372.230469 C 289.378906 372.230469 372.230469 289.378906 372.230469 187.5 C 372.230469 85.621094 289.378906 2.769531 187.5 2.769531 Z M 187.5 2.769531 " fill-opacity="1" fill-rule="nonzero"/><g clip-path="url(#25fbe0ab7c)"><path fill="#000000" d="M 187.425781 362.175781 C 91.097656 362.175781 12.675781 283.753906 12.675781 187.425781 C 12.675781 91.097656 91.097656 12.675781 187.425781 12.675781 C 283.753906 12.675781 362.175781 91.097656 362.175781 187.425781 C 362.175781 283.753906 283.753906 362.175781 187.425781 362.175781 Z M 187.425781 15.257812 C 92.472656 15.257812 15.257812 92.472656 15.257812 187.425781 C 15.257812 282.375 92.472656 359.59375 187.425781 359.59375 C 282.375 359.59375 359.59375 282.375 359.59375 187.425781 C 359.59375 92.472656 282.375 15.257812 187.425781 15.257812 Z M 187.425781 15.257812 " fill-opacity="1" fill-rule="nonzero"/></g><g fill="#000000" fill-opacity="1"><g transform="translate(57.493658, 220.56075)"><g><path d="M -9.917969 -30.925781 C -16.65625 -30.703125 -18.921875 -21.496094 -20.746094 -15.472656 C -22.316406 -10.234375 -22.839844 -9.4375 -24.308594 -9.390625 C -25.957031 -9.335938 -26.757812 -11.375 -26.867188 -14.675781 C -27 -18.664062 -26 -21.722656 -22.054688 -21.851562 L -22.296875 -29.1875 C -28.714844 -28.976562 -33.609375 -24.363281 -33.285156 -14.464844 C -33.011719 -6.121094 -29.84375 -1.867188 -24.34375 -2.046875 C -18.015625 -2.253906 -16.363281 -7.859375 -14.296875 -14.765625 C -12.847656 -19.539062 -11.921875 -23.515625 -9.585938 -23.59375 C -7.84375 -23.652344 -6.691406 -22.128906 -6.535156 -17.40625 C -6.328125 -10.988281 -7.804688 -8.460938 -12.753906 -8.300781 L -12.511719 -0.964844 C -4.355469 -1.234375 0.269531 -5.746094 -0.113281 -17.386719 C -0.4375 -27.335938 -4.371094 -31.105469 -9.917969 -30.925781 Z M -9.917969 -30.925781 "/></g></g></g><g fill="#000000" fill-opacity="1"><g transform="translate(56.849831, 184.999911)"><g><path d="M -28.1875 -21.378906 L -30.84375 -10.082031 L 0.628906 -2.679688 L 2.3125 -9.820312 L -7.066406 -12.027344 L -6.089844 -16.179688 C -4.21875 -24.125 -4.308594 -30.554688 -13.863281 -32.804688 C -23.371094 -35.039062 -26.316406 -29.324219 -28.1875 -21.378906 Z M -13.316406 -13.5 L -22.914062 -15.757812 L -21.832031 -20.355469 C -20.835938 -24.597656 -19.875 -26.679688 -15.542969 -25.660156 C -11.167969 -24.628906 -11.234375 -22.339844 -12.234375 -18.097656 Z M -13.316406 -13.5 "/></g></g></g><g fill="#000000" fill-opacity="1"><g transform="translate(65.175162, 152.344446)"><g><path d="M -17.691406 -36.378906 L -27.730469 -16.785156 L -22.015625 -13.859375 L -18.671875 -20.386719 L -1.324219 -11.5 L -4.667969 -4.96875 L 1.046875 -2.039062 L 11.085938 -21.632812 L 5.371094 -24.5625 L 2.023438 -18.03125 L -15.324219 -26.917969 L -11.976562 -33.449219 Z M -17.691406 -36.378906 "/></g></g></g><g fill="#000000" fill-opacity="1"><g transform="translate(78.399392, 125.808734)"><g><path d="M 13.769531 -24.574219 L 12.375 -23.050781 L -12.257812 -34.511719 L -22.007812 -23.847656 L 1.855469 -2.03125 L 6.808594 -7.445312 L -12.316406 -24.933594 L -10.921875 -26.457031 L 13.710938 -14.996094 L 23.457031 -25.65625 L -0.40625 -47.476562 L -5.355469 -42.058594 Z M 13.769531 -24.574219 "/></g></g></g><g fill="#000000" fill-opacity="1"><g transform="translate(107.122202, 96.916809)"><g/></g></g><g fill="#000000" fill-opacity="1"><g transform="translate(120.032579, 86.830227)"><g><path d="M 31.96875 -13.542969 L 9.261719 -39.039062 L -1.71875 -34.390625 L 0.84375 -0.359375 L 7.6875 -3.257812 L 6.988281 -11.726562 L 19.527344 -17.039062 L 25.128906 -10.644531 Z M 5.433594 -30.445312 L 7.121094 -31.160156 L 15.039062 -22.113281 L 6.425781 -18.460938 Z M 5.433594 -30.445312 "/></g></g></g><g fill="#000000" fill-opacity="1"><g transform="translate(155.465392, 72.109475)"><g><path d="M 26.636719 -9.164062 L 24.582031 -8.953125 L 13.839844 -33.910156 L -0.53125 -32.445312 L 2.738281 -0.277344 L 10.039062 -1.019531 L 7.417969 -26.800781 L 9.46875 -27.011719 L 20.214844 -2.054688 L 34.585938 -3.515625 L 31.316406 -35.683594 L 24.015625 -34.941406 Z M 26.636719 -9.164062 "/></g></g></g><g fill="#000000" fill-opacity="1"><g transform="translate(195.543552, 68.65738)"><g><path d="M 20.644531 -28.890625 L 8.945312 -31.195312 L 2.699219 0.53125 L 14.402344 2.832031 C 22.859375 4.5 32.113281 4.03125 34.808594 -9.652344 C 37.492188 -23.285156 29.105469 -27.226562 20.644531 -28.890625 Z M 11.140625 -4.351562 L 14.902344 -23.476562 L 19.402344 -22.59375 C 25.027344 -21.484375 29.394531 -20.15625 27.605469 -11.066406 C 25.808594 -1.933594 21.265625 -2.359375 15.640625 -3.464844 Z M 11.140625 -4.351562 "/></g></g></g><g fill="#000000" fill-opacity="1"><g transform="translate(232.434463, 77.420634)"><g/></g></g><g fill="#000000" fill-opacity="1"><g transform="translate(247.799729, 83.26305)"><g><path d="M 30.777344 10.367188 C 34.597656 4.8125 28.53125 -2.476562 24.761719 -7.519531 C 21.480469 -11.890625 21.148438 -12.785156 21.980469 -13.996094 C 22.917969 -15.355469 25.035156 -14.789062 27.753906 -12.917969 C 31.042969 -10.660156 32.914062 -8.035156 30.679688 -4.785156 L 36.722656 -0.628906 C 40.363281 -5.917969 39.554688 -12.597656 31.394531 -18.210938 C 24.515625 -22.941406 19.210938 -22.914062 16.089844 -18.378906 C 12.503906 -13.164062 16.039062 -8.507812 20.367188 -2.746094 C 23.351562 1.253906 26.003906 4.355469 24.679688 6.285156 C 23.691406 7.71875 21.78125 7.742188 17.890625 5.066406 C 12.597656 1.429688 11.441406 -1.261719 14.25 -5.339844 L 8.203125 -9.5 C 3.578125 -2.773438 4.464844 3.625 14.0625 10.226562 C 22.261719 15.867188 27.632812 14.941406 30.777344 10.367188 Z M 30.777344 10.367188 "/></g></g></g><g fill="#000000" fill-opacity="1"><g transform="translate(276.816396, 103.805985)"><g><path d="M 25.574219 -19.835938 L 20.671875 -15.6875 L 27.515625 -7.597656 L 7.730469 9.140625 L 12.472656 14.742188 L 32.253906 -1.996094 L 39.066406 6.058594 L 43.96875 1.910156 Z M 25.574219 -19.835938 "/></g></g></g><g fill="#000000" fill-opacity="1"><g transform="translate(298.696553, 130.074552)"><g><path d="M 24.453125 7.925781 L 20.707031 9.664062 L 19.933594 7.996094 L 23.679688 6.261719 L 33.019531 -5.652344 L 29.722656 -12.765625 L 14.867188 7.3125 L 5.421875 11.691406 L 8.507812 18.351562 L 17.953125 13.972656 L 42.894531 15.65625 L 39.597656 8.539062 Z M 24.453125 7.925781 "/></g></g></g><g fill="#000000" fill-opacity="1"><g transform="translate(313.191166, 163.224462)"><g><path d="M 4.671875 25.394531 L 10.988281 24.234375 L 7.691406 8.84375 L 33.625 4.074219 L 32.296875 -3.144531 L 3.835938 2.09375 C 1.355469 2.546875 0.257812 4.195312 0.761719 6.667969 Z M 4.671875 25.394531 "/></g></g></g><g fill="#000000" fill-opacity="1"><g transform="translate(318.300302, 192.746593)"><g><path d="M -1.304688 25.789062 L 5.109375 26.113281 L 5.902344 10.402344 L 12.453125 10.734375 L 11.777344 24.152344 L 18.1875 24.476562 L 18.867188 11.058594 L 25.371094 11.386719 L 24.578125 27.097656 L 30.988281 27.421875 L 32.15625 4.378906 L -0.140625 2.75 Z M -1.304688 25.789062 "/></g></g></g><g fill="#000000" fill-opacity="1"><g transform="translate(69.292085, 278.228743)"><g><path d="M 11.265625 -6.789062 C 5.582031 -1.8125 4.195312 5.347656 9.21875 11.089844 C 14.199219 16.777344 21.480469 16.351562 27.167969 11.371094 C 32.824219 6.417969 34.210938 -0.742188 29.234375 -6.429688 C 24.207031 -12.171875 16.925781 -11.742188 11.265625 -6.789062 Z M 13.246094 -4.527344 C 17.886719 -8.585938 23.265625 -9.347656 27.300781 -4.738281 C 31.3125 -0.15625 29.824219 5.050781 25.183594 9.109375 C 20.519531 13.191406 15.164062 13.980469 11.152344 9.398438 C 7.117188 4.789062 8.582031 -0.445312 13.246094 -4.527344 Z M 13.246094 -4.527344 "/></g></g></g><g fill="#000000" fill-opacity="1"><g transform="translate(97.351435, 307.369249)"><g><path d="M 22.699219 -15.890625 L 16.675781 -19.953125 L 2.222656 1.496094 L 4.714844 3.179688 L 9.699219 -4.214844 L 13.226562 -1.835938 C 18.640625 1.8125 23.042969 2.699219 26.835938 -2.929688 C 30.609375 -8.527344 28.113281 -12.242188 22.699219 -15.890625 Z M 11.132812 -6.34375 L 17.734375 -16.140625 L 21.292969 -13.742188 C 24.945312 -11.28125 27.171875 -8.808594 24.339844 -4.609375 C 21.472656 -0.351562 18.34375 -1.484375 14.691406 -3.945312 Z M 11.132812 -6.34375 "/></g></g></g><g fill="#000000" fill-opacity="1"><g transform="translate(126.368004, 325.201717)"><g><path d="M 17.484375 6.65625 L 18.398438 4.253906 L 6.226562 -0.378906 L 9.464844 -8.878906 L 19.921875 -4.898438 L 20.835938 -7.300781 L 10.378906 -11.28125 L 13.601562 -19.75 L 25.773438 -15.117188 L 26.6875 -17.515625 L 11.703125 -23.21875 L 2.503906 0.953125 Z M 17.484375 6.65625 "/></g></g></g><g fill="#000000" fill-opacity="1"><g transform="translate(156.940506, 335.751977)"><g><path d="M 5.648438 0.65625 L 8.289062 -22.046875 L 7.992188 -23.632812 L 9.046875 -23.507812 L 18.804688 2.1875 L 24.816406 2.882812 L 27.800781 -22.804688 L 24.851562 -23.148438 L 22.210938 -0.445312 L 22.507812 1.140625 L 21.449219 1.015625 L 11.660156 -24.683594 L 5.644531 -25.382812 L 2.660156 0.308594 Z M 5.648438 0.65625 "/></g></g></g><g fill="#000000" fill-opacity="1"><g transform="translate(196.298864, 338.596043)"><g><path d="M 23.796875 -3.578125 L 11.5 -27.882812 L 5.804688 -27.027344 L 1.195312 -0.179688 L 4.171875 -0.628906 L 5.902344 -10.828125 L 16.207031 -12.378906 L 20.859375 -3.136719 Z M 8.453125 -25.941406 L 9.289062 -26.066406 L 14.988281 -14.792969 L 6.355469 -13.496094 Z M 8.453125 -25.941406 "/></g></g></g><g fill="#000000" fill-opacity="1"><g transform="translate(232.420561, 331.440226)"><g><path d="M 5.980469 -30.296875 L -7.527344 -24.851562 L -6.566406 -22.46875 L -1.191406 -24.636719 L 6.558594 -5.414062 L 1.183594 -3.246094 L 2.144531 -0.863281 L 15.652344 -6.308594 L 14.691406 -8.691406 L 9.351562 -6.539062 L 1.601562 -25.761719 L 6.941406 -27.914062 Z M 5.980469 -30.296875 "/></g></g></g><g fill="#000000" fill-opacity="1"><g transform="translate(260.524505, 319.004943)"><g><path d="M -3.671875 -13.796875 C -8.113281 -20.09375 -6.804688 -24.15625 -2.90625 -26.90625 C 0.300781 -29.167969 3.335938 -28.75 5.640625 -25.484375 C 11.09375 -17.75 0.8125 -7.441406 -1.136719 -5.617188 L 1.886719 -1.332031 L 18.226562 -12.855469 L 16.746094 -14.957031 L 2.867188 -5.164062 L 1.882812 -3.886719 L 1.332031 -4.667969 C 8.625 -11.832031 12.960938 -20.320312 8.117188 -27.1875 C 4.863281 -31.804688 0.0507812 -32.132812 -4.449219 -28.960938 C -9.515625 -25.390625 -11.5 -19.675781 -6.128906 -12.0625 Z M -3.671875 -13.796875 "/></g></g></g><g fill="#000000" fill-opacity="1"><g transform="translate(289.257732, 296.950717)"><g><path d="M -6.089844 -8.070312 C -0.640625 -3.433594 4.296875 -4.484375 8.597656 -9.542969 C 12.613281 -14.265625 12.664062 -18.800781 9.144531 -21.792969 C 6.125 -24.359375 3.703125 -23.722656 1.0625 -21.636719 L 0.417969 -22.183594 C 2.167969 -25.03125 2.003906 -27.382812 -0.402344 -29.429688 C -3.417969 -31.996094 -7.648438 -31.496094 -11.664062 -26.773438 C -15.964844 -21.714844 -15.96875 -16.953125 -11.582031 -13.222656 L -9.632812 -15.511719 C -12.847656 -18.246094 -13.082031 -21.140625 -9.707031 -25.109375 C -6.664062 -28.6875 -4.164062 -28.683594 -2.042969 -26.875 C 0.0820312 -25.070312 0.0859375 -23.089844 -1.933594 -20.714844 L -4.265625 -17.976562 L -2.308594 -16.3125 L 0.0234375 -19.050781 C 2.042969 -21.429688 4.261719 -21.996094 6.859375 -19.789062 C 9.515625 -17.53125 9.683594 -14.785156 6.640625 -11.207031 C 3.265625 -7.238281 0.132812 -6.726562 -4.144531 -10.363281 Z M -6.089844 -8.070312 "/></g></g></g><g clip-path="url(#bad05703ba)"><path fill="#000000" d="M 274.210938 165.972656 L 269.335938 157.265625 C 269.027344 156.691406 261.316406 142.640625 258.480469 137.953125 C 254.800781 131.8125 253.914062 130.796875 249.085938 125.316406 L 248.464844 124.609375 C 246.558594 122.441406 240.621094 116.609375 240.402344 116.386719 L 239.203125 115.152344 C 237.519531 113.425781 235.039062 112.808594 232.734375 113.472656 C 230.429688 114.132812 228.703125 116.035156 228.214844 118.378906 L 227.460938 122.046875 C 227.328125 122.398438 227.238281 122.753906 227.0625 123.105469 L 226.929688 123.460938 C 226.839844 123.722656 226.707031 124.035156 226.574219 124.300781 L 226.574219 124.34375 L 226.441406 124.652344 C 226.265625 125.007812 226.132812 125.359375 225.953125 125.714844 L 225.820312 126.023438 C 225.6875 126.289062 225.554688 126.554688 225.421875 126.773438 C 225.335938 126.90625 225.289062 127.039062 225.203125 127.171875 C 225.070312 127.390625 224.9375 127.65625 224.804688 127.878906 L 224.582031 128.230469 C 224.402344 128.542969 224.183594 128.808594 224.003906 129.117188 C 223.917969 129.25 223.828125 129.382812 223.695312 129.558594 C 223.5625 129.734375 223.429688 129.910156 223.296875 130.089844 C 223.207031 130.222656 223.074219 130.351562 222.984375 130.53125 C 222.898438 130.664062 222.765625 130.796875 222.675781 130.929688 L 222.320312 131.324219 C 222.234375 131.457031 222.101562 131.546875 222.011719 131.679688 L 221.613281 132.121094 C 221.433594 132.296875 221.300781 132.476562 221.125 132.652344 L 220.859375 132.917969 C 220.238281 133.492188 219.617188 134.066406 219 134.597656 L 218.6875 134.859375 L 218.15625 135.257812 C 218.023438 135.347656 217.933594 135.4375 217.800781 135.523438 L 217.757812 135.566406 C 217.582031 135.699219 217.402344 135.832031 217.269531 135.921875 C 217.269531 135.921875 217.226562 135.964844 217.179688 135.964844 C 216.738281 136.277344 216.25 136.585938 215.761719 136.894531 L 215.542969 137.027344 C 215.320312 137.160156 215.097656 137.292969 214.832031 137.425781 L 214.65625 137.511719 C 213.859375 137.953125 213.058594 138.308594 212.261719 138.660156 L 212.175781 138.707031 C 211.023438 139.191406 209.871094 139.589844 208.628906 139.898438 L 208.585938 139.898438 C 207.34375 140.207031 206.101562 140.472656 204.816406 140.605469 C 201.316406 141.003906 197.863281 140.785156 194.449219 139.855469 L 193.03125 135.125 C 191.082031 128.761719 185.585938 124.035156 179.027344 123.015625 C 175.925781 122.53125 172.871094 124.210938 171.585938 127.082031 L 163.917969 144.40625 C 163.917969 144.453125 163.917969 144.453125 163.875 144.496094 C 163.609375 145.203125 163.34375 145.820312 163.253906 146 C 163.121094 146.21875 162.945312 146.527344 162.101562 148.515625 C 162.058594 148.5625 162.058594 148.648438 162.011719 148.695312 L 161.660156 149.796875 C 161.261719 150.816406 160.90625 151.832031 160.507812 152.890625 C 160.019531 154.304688 159.53125 155.808594 158.777344 157.398438 C 158.777344 157.445312 158.734375 157.488281 158.734375 157.53125 L 158.511719 158.0625 C 158.335938 158.503906 158.15625 158.902344 157.980469 159.34375 L 157.582031 160.273438 C 157.449219 160.625 157.273438 160.980469 157.140625 161.289062 L 156.652344 162.394531 C 156.519531 162.703125 156.386719 163.011719 156.253906 163.277344 L 156.121094 163.542969 C 155.988281 163.808594 155.855469 164.074219 155.722656 164.382812 C 155.542969 164.734375 155.410156 165.046875 155.234375 165.398438 L 153.636719 168.625 L 150.757812 173.972656 C 149.917969 175.5625 149.03125 176.976562 148.011719 178.570312 C 147.613281 179.1875 147.214844 179.851562 146.8125 180.46875 C 146.636719 180.777344 146.414062 181.042969 146.238281 181.351562 L 145.929688 181.796875 C 145.664062 182.191406 145.394531 182.589844 145.175781 182.945312 L 144.820312 183.472656 C 144.554688 183.871094 144.289062 184.269531 144.023438 184.625 L 143.710938 185.066406 C 142.78125 186.390625 141.851562 187.71875 140.875 189 L 140.65625 189.308594 C 140.34375 189.707031 140.035156 190.101562 139.722656 190.5 L 139.414062 190.898438 C 139.105469 191.296875 138.792969 191.695312 138.4375 192.136719 L 138.304688 192.269531 C 137.242188 193.59375 136.136719 194.921875 135.027344 196.203125 L 134.804688 196.46875 C 134.453125 196.863281 134.140625 197.261719 133.785156 197.660156 L 133.519531 197.96875 L 132.457031 199.164062 C 128.867188 203.097656 125.058594 206.851562 121.070312 210.34375 L 104.984375 224.484375 C 97.71875 230.851562 95.898438 241.148438 100.242188 251.3125 C 101.570312 254.492188 103.34375 257.234375 105.648438 259.753906 C 109.679688 264.214844 115.308594 266.734375 122.042969 267.042969 C 122.53125 267.042969 122.976562 267.089844 123.460938 267.089844 C 129 267.089844 134.761719 265.585938 139.8125 262.757812 L 229.5 212.953125 L 243.238281 205.484375 C 244.390625 204.910156 262.203125 195.980469 267.429688 191.386719 L 267.785156 191.074219 C 273.148438 186.390625 274.253906 185.417969 276.160156 180.601562 C 277.535156 177.109375 277.84375 171.277344 274.210938 165.972656 Z M 221.347656 138.175781 C 221.433594 138.085938 221.523438 138.042969 221.613281 137.953125 L 221.699219 137.867188 C 222.453125 137.246094 223.164062 136.628906 223.917969 135.878906 L 224.183594 135.613281 C 224.359375 135.4375 224.582031 135.214844 224.757812 134.992188 C 224.847656 134.90625 224.9375 134.773438 225.023438 134.683594 L 225.15625 134.550781 C 225.289062 134.417969 225.421875 134.242188 225.554688 134.109375 L 225.601562 134.066406 C 225.6875 133.976562 225.734375 133.890625 225.820312 133.800781 L 226 133.625 C 226.132812 133.492188 226.265625 133.316406 226.398438 133.183594 C 226.53125 133.003906 226.664062 132.871094 226.796875 132.652344 C 226.929688 132.476562 227.0625 132.253906 227.238281 132.03125 C 227.328125 131.898438 227.460938 131.722656 227.550781 131.589844 C 227.773438 131.238281 227.992188 130.929688 228.214844 130.574219 L 228.4375 130.175781 C 228.613281 129.910156 228.746094 129.644531 228.925781 129.335938 C 229.011719 129.203125 229.101562 129.027344 229.191406 128.894531 C 229.367188 128.585938 229.5 128.320312 229.675781 128.011719 L 229.722656 127.921875 L 229.855469 127.65625 C 230.074219 127.261719 230.253906 126.863281 230.429688 126.421875 L 230.5625 126.066406 L 230.5625 126.023438 C 230.695312 125.714844 230.828125 125.359375 230.960938 125.050781 L 231.140625 124.652344 C 231.316406 124.253906 231.449219 123.8125 231.582031 123.371094 C 231.582031 123.328125 231.582031 123.328125 231.628906 123.28125 C 231.628906 123.195312 231.671875 123.148438 231.671875 123.0625 L 232.46875 119.261719 C 232.691406 118.15625 233.578125 117.757812 233.929688 117.667969 C 234.285156 117.582031 235.214844 117.40625 236.015625 118.199219 L 237.253906 119.4375 C 237.300781 119.480469 243.324219 125.402344 245.140625 127.4375 L 245.761719 128.144531 C 250.59375 133.625 251.210938 134.332031 254.667969 140.121094 C 257.460938 144.761719 265.347656 159.167969 265.4375 159.34375 L 269.601562 166.726562 C 266.5 168.449219 259.054688 172.558594 249.042969 178.125 C 237.832031 174.457031 229.632812 166.679688 224.714844 155.101562 C 221.433594 147.324219 220.726562 140.339844 220.636719 138.707031 C 220.683594 138.660156 220.726562 138.660156 220.769531 138.617188 C 220.949219 138.484375 221.167969 138.351562 221.347656 138.175781 Z M 175.574219 128.808594 C 176.058594 127.746094 177.167969 127.128906 178.320312 127.304688 C 183.238281 128.054688 187.359375 131.636719 188.820312 136.363281 L 189.355469 138.042969 C 184.65625 136.671875 177.65625 135.257812 172.070312 136.761719 Z M 107.910156 227.625 L 123.992188 213.527344 C 128.070312 209.945312 132.015625 206.058594 135.691406 201.992188 C 135.871094 201.769531 136.046875 201.59375 136.269531 201.371094 C 139.238281 201.992188 141.984375 202.257812 144.464844 202.257812 C 160.59375 202.257812 167.597656 190.988281 170.519531 186.304688 L 170.832031 185.816406 C 171.984375 183.960938 174.640625 178.082031 178.941406 167.875 C 179.429688 166.769531 178.894531 165.488281 177.742188 165 C 176.636719 164.515625 175.351562 165.046875 174.863281 166.195312 C 169.722656 178.480469 167.773438 182.371094 167.109375 183.519531 L 166.800781 184.003906 C 163.742188 188.910156 156.875 200.003906 139.589844 197.527344 C 140.34375 196.644531 141.054688 195.761719 141.761719 194.921875 L 141.894531 194.789062 C 142.207031 194.390625 142.558594 193.949219 142.871094 193.550781 L 143.179688 193.152344 C 143.492188 192.753906 143.800781 192.3125 144.113281 191.914062 L 144.378906 191.605469 C 145.351562 190.28125 146.371094 188.910156 147.300781 187.539062 L 147.613281 187.097656 L 148.410156 185.90625 L 148.765625 185.375 L 149.5625 184.179688 L 149.871094 183.738281 C 150.09375 183.429688 150.269531 183.121094 150.492188 182.765625 C 150.933594 182.105469 151.289062 181.441406 151.6875 180.824219 C 152.753906 179.144531 153.683594 177.683594 154.570312 176.003906 L 156.652344 172.25 L 159.222656 167.210938 C 159.398438 166.859375 159.53125 166.503906 159.710938 166.195312 C 159.84375 165.929688 159.976562 165.621094 160.109375 165.355469 L 160.242188 165.089844 C 160.375 164.78125 160.507812 164.472656 160.683594 164.160156 L 161.171875 163.058594 C 161.347656 162.703125 161.480469 162.351562 161.613281 161.996094 L 162.011719 161.023438 L 162.546875 159.699219 L 162.765625 159.125 C 163.5625 157.355469 164.140625 155.722656 164.628906 154.261719 C 164.980469 153.246094 165.292969 152.273438 165.691406 151.34375 C 165.691406 151.300781 165.734375 151.257812 165.734375 151.214844 L 166.089844 150.109375 C 166.800781 148.515625 166.976562 148.164062 167.019531 148.074219 C 167.199219 147.808594 167.199219 147.808594 167.863281 146.085938 L 168.527344 144.582031 C 170.964844 139.367188 178.851562 140.03125 184.964844 141.445312 C 184.082031 143.613281 182.21875 148.339844 179.960938 153.820312 C 179.515625 154.925781 180.046875 156.207031 181.15625 156.648438 C 181.421875 156.738281 181.6875 156.824219 181.996094 156.824219 C 182.882812 156.824219 183.683594 156.296875 184.035156 155.457031 C 186.472656 149.535156 188.46875 144.496094 189.265625 142.59375 C 190.105469 142.859375 190.859375 143.125 191.4375 143.347656 C 191.523438 143.390625 191.613281 143.480469 191.703125 143.523438 C 191.789062 143.566406 191.921875 143.613281 192.011719 143.65625 C 196.355469 145.027344 200.832031 145.46875 205.304688 144.9375 C 206.769531 144.761719 208.1875 144.496094 209.648438 144.097656 L 209.691406 144.097656 C 211.109375 143.746094 212.484375 143.257812 213.8125 142.683594 L 213.945312 142.640625 C 214.789062 142.285156 215.675781 141.84375 216.472656 141.402344 C 216.871094 144.671875 217.933594 150.417969 220.59375 156.738281 C 225.421875 168.183594 233.488281 176.492188 244.035156 181 C 221.65625 193.460938 189.574219 211.359375 164.097656 225.898438 C 125.632812 247.777344 105.027344 250.558594 104.808594 250.558594 L 104.761719 250.558594 C 104.585938 250.207031 104.40625 249.851562 104.273438 249.457031 C 100.730469 241.101562 102.105469 232.707031 107.910156 227.625 Z M 272.128906 178.878906 C 270.578125 182.722656 270.179688 183.078125 264.90625 187.671875 L 264.550781 187.980469 C 259.675781 192.269531 241.417969 201.371094 241.242188 201.460938 C 241.199219 201.460938 241.199219 201.503906 241.152344 201.503906 L 227.375 209.019531 L 137.640625 258.78125 C 125.898438 265.320312 114.289062 262.667969 108.882812 256.703125 C 108.261719 256.039062 107.6875 255.332031 107.15625 254.582031 C 113.09375 253.476562 132.988281 248.570312 166.222656 229.613281 C 205.925781 206.984375 261.671875 176.09375 271.683594 170.570312 C 273.058594 173.621094 272.925781 176.800781 272.128906 178.878906 Z M 272.128906 178.878906 " fill-opacity="1" fill-rule="nonzero"/></g><g clip-path="url(#bc4124be09)"><g clip-path="url(#306d8d9a96)"><path fill="#000000" d="M 39.035156 227.4375 L 64.03125 227.4375 L 64.03125 251.183594 L 39.035156 251.183594 Z M 39.035156 227.4375 " fill-opacity="1" fill-rule="nonzero"/></g></g><g clip-path="url(#1bac60b98d)"><g clip-path="url(#046a43c1ad)"><path fill="#000000" d="M 311.488281 227.4375 L 336.484375 227.4375 L 336.484375 251.183594 L 311.488281 251.183594 Z M 311.488281 227.4375 " fill-opacity="1" fill-rule="nonzero"/></g></g></svg>